<?xml version="1.0" encoding="UTF-8" standalone="no"?>
<svg
   xmlns:dc="http://purl.org/dc/elements/1.1/"
   xmlns:cc="http://creativecommons.org/ns#"
   xmlns:rdf="http://www.w3.org/1999/02/22-rdf-syntax-ns#"
   xmlns:svg="http://www.w3.org/2000/svg"
   xmlns="http://www.w3.org/2000/svg"
   xmlns:sodipodi="http://sodipodi.sourceforge.net/DTD/sodipodi-0.dtd"
   xmlns:inkscape="http://www.inkscape.org/namespaces/inkscape"
   width="469.56pt"
   height="538.2pt"
   viewBox="0 0 469.56 538.2"
   version="1.2"
   id="svg71"
   sodipodi:docname="favicon.svg"
   inkscape:version="0.92.5 (2060ec1f9f, 2020-04-08)">
  <metadata
     id="metadata75">
    <rdf:RDF>
      <cc:Work
         rdf:about="">
        <dc:format>image/svg+xml</dc:format>
        <dc:type
           rdf:resource="http://purl.org/dc/dcmitype/StillImage" />
        <dc:title></dc:title>
      </cc:Work>
    </rdf:RDF>
  </metadata>
  <sodipodi:namedview
     pagecolor="#ffffff"
     bordercolor="#666666"
     borderopacity="1"
     objecttolerance="10"
     gridtolerance="10"
     guidetolerance="10"
     inkscape:pageopacity="0"
     inkscape:pageshadow="2"
     inkscape:window-width="1848"
     inkscape:window-height="1016"
     id="namedview73"
     showgrid="false"
     inkscape:zoom="0.32887402"
     inkscape:cx="313.04"
     inkscape:cy="358.80001"
     inkscape:window-x="72"
     inkscape:window-y="27"
     inkscape:window-maximized="1"
     inkscape:current-layer="surface1197" />
  <defs
     id="defs8">
    <clipPath
       id="clip1">
      <path
         d="M 2 0 L 469.558594 0 L 469.558594 538 L 2 538 Z M 2 0 "
         id="path2" />
    </clipPath>
    <clipPath
       id="clip2">
      <path
         d="M 0 0 L 469.558594 0 L 469.558594 538.199219 L 0 538.199219 Z M 0 0 "
         id="path5" />
    </clipPath>
  </defs>
  <g
     id="surface1197">
    <g
       clip-path="url(#clip1)"
       clip-rule="nonzero"
       id="g56">
      <path
         style=" stroke:none;fill-rule:nonzero;fill:rgb(0%,0%,0%);fill-opacity:1;"
         d="M 2.757812 0.171875 C 12.042969 7.394531 34.132812 30.222656 55.132812 61.347656 C 84.382812 60.972656 148.007812 56.597656 198.507812 56.597656 C 198.714844 110.015625 199.25 152.347656 199.25 187.015625 C 199.25 221.679688 198.050781 308.347656 197.382812 348.015625 C 196.714844 387.679688 194.714844 453.082031 193.714844 486.414062 C 229.714844 509.082031 245.914062 522.480469 260.582031 537.8125 C 259.132812 499.347656 260.117188 470.015625 260.78125 444.347656 C 277.882812 465.597656 290.714844 484.945312 295.050781 495.945312 C 321.632812 501.347656 332.382812 501.597656 342.632812 501.597656 C 352.882812 501.597656 371.882812 499.847656 385.132812 495.597656 C 398.382812 491.347656 415.132812 483.847656 428.132812 470.597656 C 441.132812 457.347656 443.355469 452.679688 450.933594 436.597656 C 457.882812 421.847656 460.382812 399.847656 460.382812 393.847656 C 460.382812 376.679688 456.550781 366.679688 451.714844 355.679688 C 446.882812 344.679688 435.550781 332.679688 428.382812 325.011719 C 421.214844 317.347656 401.050781 300.214844 393.050781 294.046875 C 405.550781 283.511719 411.496094 276.871094 416.21875 269.679688 C 423.21875 259.011719 420.21875 261.347656 423.882812 252.847656 C 425.382812 248.011719 427.550781 233.347656 427.550781 229.511719 C 427.550781 225.679688 426.550781 218.011719 425.71875 214.011719 C 424.886719 210.011719 420.550781 198.847656 418.550781 194.679688 C 416.550781 190.511719 410.882812 183.511719 408.882812 180.347656 C 406.882812 177.179688 395.21875 165.679688 391.21875 161.347656 C 387.21875 157.015625 379.050781 149.015625 374.71875 144.847656 C 370.382812 140.679688 357.074219 130.542969 352.550781 127.578125 C 348.882812 125.179688 341.550781 120.847656 337.71875 119.011719 C 333.882812 117.179688 325.769531 113.617188 322.550781 113.011719 C 319.882812 112.511719 308.382812 110.179688 303.21875 110.179688 C 298.050781 110.179688 293.382812 110.847656 289.882812 112.011719 C 286.382812 113.179688 280.269531 116.050781 277.882812 117.578125 C 275.382812 119.179688 262.21875 129.511719 259.050781 132.847656 C 259.050781 122.015625 259.351562 93.347656 259.851562 57.179688 C 292.550781 57.511719 350.382812 58.847656 368.882812 59.179688 C 387.382812 59.511719 412.71875 61.847656 469.21875 61.179688 C 447.382812 37.847656 427.21875 13.347656 422.21875 4.679688 C 411.050781 5.011719 337.050781 6.347656 321.050781 6.179688 C 305.050781 6.011719 246.484375 6.414062 223.984375 6.414062 C 201.484375 6.414062 149.382812 4.679688 125.050781 4.679688 C 100.71875 4.679688 73.882812 3.339844 57.882812 2.847656 C 47.050781 2.515625 0.0507812 0.046875 2.757812 0.171875 "
         id="path54" />
    </g>
    <g
       clip-path="url(#clip2)"
       clip-rule="nonzero"
       id="g60">
      <path
         style="fill:none;stroke-width:3.02;stroke-linecap:butt;stroke-linejoin:miter;stroke:rgb(0%,0%,0%);stroke-opacity:1;stroke-miterlimit:4;"
         d="M 27.578125 5380.28125 C 120.429688 5308.054688 341.328125 5079.773438 551.328125 4768.523438 C 843.828125 4772.273438 1480.078125 4816.023438 1985.078125 4816.023438 C 1987.148438 4281.84375 1992.5 3858.523438 1992.5 3511.84375 C 1992.5 3165.203125 1980.507812 2298.523438 1973.828125 1901.84375 C 1967.148438 1505.203125 1947.148438 851.179688 1937.148438 517.859375 C 2297.148438 291.179688 2459.140625 157.195312 2605.820312 3.875 C 2591.328125 388.523438 2601.171875 681.84375 2607.8125 938.523438 C 2778.828125 726.023438 2907.148438 532.546875 2950.507812 422.546875 C 3216.328125 368.523438 3323.828125 366.023438 3426.328125 366.023438 C 3528.828125 366.023438 3718.828125 383.523438 3851.328125 426.023438 C 3983.828125 468.523438 4151.328125 543.523438 4281.328125 676.023438 C 4411.328125 808.523438 4433.554688 855.203125 4509.335938 1016.023438 C 4578.828125 1163.523438 4603.828125 1383.523438 4603.828125 1443.523438 C 4603.828125 1615.203125 4565.507812 1715.203125 4517.148438 1825.203125 C 4468.828125 1935.203125 4355.507812 2055.203125 4283.828125 2131.882812 C 4212.148438 2208.523438 4010.507812 2379.851562 3930.507812 2441.53125 C 4055.507812 2546.882812 4114.960938 2613.289062 4162.1875 2685.203125 C 4232.1875 2791.882812 4202.1875 2768.523438 4238.828125 2853.523438 C 4253.828125 2901.882812 4275.507812 3048.523438 4275.507812 3086.882812 C 4275.507812 3125.203125 4265.507812 3201.882812 4257.1875 3241.882812 C 4248.867188 3281.882812 4205.507812 3393.523438 4185.507812 3435.203125 C 4165.507812 3476.882812 4108.828125 3546.882812 4088.828125 3578.523438 C 4068.828125 3610.203125 3952.1875 3725.203125 3912.1875 3768.523438 C 3872.1875 3811.84375 3790.507812 3891.84375 3747.1875 3933.523438 C 3703.828125 3975.203125 3570.742188 4076.570312 3525.507812 4106.21875 C 3488.828125 4130.203125 3415.507812 4173.523438 3377.1875 4191.882812 C 3338.828125 4210.203125 3257.695312 4245.828125 3225.507812 4251.882812 C 3198.828125 4256.882812 3083.828125 4280.203125 3032.1875 4280.203125 C 2980.507812 4280.203125 2933.828125 4273.523438 2898.828125 4261.882812 C 2863.828125 4250.203125 2802.695312 4221.492188 2778.828125 4206.21875 C 2753.828125 4190.203125 2622.1875 4086.882812 2590.507812 4053.523438 C 2590.507812 4161.84375 2593.515625 4448.523438 2598.515625 4810.203125 C 2925.507812 4806.882812 3503.828125 4793.523438 3688.828125 4790.203125 C 3873.828125 4786.882812 4127.1875 4763.523438 4692.1875 4770.203125 C 4473.828125 5003.523438 4272.1875 5248.523438 4222.1875 5335.203125 C 4110.507812 5331.882812 3370.507812 5318.523438 3210.507812 5320.203125 C 3050.507812 5321.882812 2464.84375 5317.859375 2239.84375 5317.859375 C 2014.84375 5317.859375 1493.828125 5335.203125 1250.507812 5335.203125 C 1007.1875 5335.203125 738.828125 5348.601562 578.828125 5353.523438 C 470.507812 5356.84375 0.507812 5381.53125 27.578125 5380.28125 Z M 27.578125 5380.28125 "
         transform="matrix(0.1,0,0,-0.1,0,538.2)"
         id="path58" />
    </g>
    <path
       style=" stroke:none;fill-rule:nonzero;fill:rgb(100%,100%,100%);fill-opacity:1;"
       d="M 260.234375 424.546875 C 280.53125 431.238281 292.234375 437.847656 331.484375 437.847656 C 364.484375 437.847656 384.433594 419.046875 384.433594 419.046875 C 384.433594 419.046875 391.378906 411.894531 396.726562 403.585938 C 399.9375 398.589844 401.582031 393.445312 402.984375 388.648438 C 404.382812 383.847656 407.882812 370.695312 407.882812 358.695312 C 407.882812 346.695312 404.234375 336.847656 400.734375 330.097656 C 397.234375 323.347656 391.984375 318.847656 382.234375 312.347656 C 372.484375 305.847656 358.984375 305.496094 354.484375 305.496094 C 343.484375 305.496094 328.984375 308.597656 321.484375 311.597656 C 313.984375 314.597656 304.484375 321.847656 294.234375 330.847656 C 283.984375 339.847656 272.484375 359.847656 272.484375 359.847656 C 272.484375 359.847656 264.984375 376.847656 262.984375 392.347656 C 260.984375 407.847656 260.734375 410.347656 260.234375 424.546875 "
       id="path62" />
    <path
       style="fill:none;stroke-width:3.02;stroke-linecap:butt;stroke-linejoin:miter;stroke:rgb(0%,0%,0%);stroke-opacity:1;stroke-miterlimit:4;"
       d="M 2602.34375 1136.53125 C 2805.3125 1069.617188 2922.34375 1003.523438 3314.84375 1003.523438 C 3644.84375 1003.523438 3844.335938 1191.53125 3844.335938 1191.53125 C 3844.335938 1191.53125 3913.789062 1263.054688 3967.265625 1346.140625 C 3999.375 1396.101562 4015.820312 1447.546875 4029.84375 1495.515625 C 4043.828125 1543.523438 4078.828125 1675.046875 4078.828125 1795.046875 C 4078.828125 1915.046875 4042.34375 2013.523438 4007.34375 2081.023438 C 3972.34375 2148.523438 3919.84375 2193.523438 3822.34375 2258.523438 C 3724.84375 2323.523438 3589.84375 2327.039062 3544.84375 2327.039062 C 3434.84375 2327.039062 3289.84375 2296.023438 3214.84375 2266.023438 C 3139.84375 2236.023438 3044.84375 2163.523438 2942.34375 2073.523438 C 2839.84375 1983.523438 2724.84375 1783.523438 2724.84375 1783.523438 C 2724.84375 1783.523438 2649.84375 1613.523438 2629.84375 1458.523438 C 2609.84375 1303.523438 2607.34375 1278.523438 2602.34375 1136.53125 Z M 2602.34375 1136.53125 "
       transform="matrix(0.1,0,0,-0.1,0,538.2)"
       id="path64" />
    <path
       style=" stroke:none;fill-rule:nonzero;fill:rgb(100%,100%,100%);fill-opacity:1;"
       d="M 261.132812 275.097656 C 284.882812 275.097656 294.78125 274.296875 307.28125 271.296875 C 319.78125 268.296875 324.132812 266.746094 337.632812 260.746094 C 351.132812 254.746094 360.582031 247.097656 368.082031 236.347656 C 375.582031 225.597656 377.550781 221.015625 379.132812 213.847656 C 380.714844 206.679688 380.882812 211.347656 380.882812 198.097656 C 380.882812 184.847656 379.632812 182.347656 376.632812 176.097656 C 373.632812 169.847656 368.132812 163.347656 363.382812 160.597656 C 358.632812 157.847656 348.132812 153.347656 338.882812 153.347656 C 329.632812 153.347656 318.132812 155.097656 312.882812 157.597656 C 307.632812 160.097656 297.132812 167.097656 290.632812 173.347656 C 284.132812 179.597656 277.933594 188.398438 273.683594 195.398438 C 268.164062 204.488281 264.632812 212.847656 263.632812 217.347656 C 261.472656 227.0625 261.183594 239.347656 261.03125 248.847656 C 260.832031 261.597656 261.132812 264.597656 261.132812 275.097656 "
       id="path66" />
    <path
       style="fill:none;stroke-width:3.02;stroke-linecap:butt;stroke-linejoin:miter;stroke:rgb(0%,0%,0%);stroke-opacity:1;stroke-miterlimit:4;"
       d="M 2611.328125 2631.023438 C 2848.828125 2631.023438 2947.8125 2639.03125 3072.8125 2669.03125 C 3197.8125 2699.03125 3241.328125 2714.539062 3376.328125 2774.539062 C 3511.328125 2834.539062 3605.820312 2911.023438 3680.820312 3018.523438 C 3755.820312 3126.023438 3775.507812 3171.84375 3791.328125 3243.523438 C 3807.148438 3315.203125 3808.828125 3268.523438 3808.828125 3401.023438 C 3808.828125 3533.523438 3796.328125 3558.523438 3766.328125 3621.023438 C 3736.328125 3683.523438 3681.328125 3748.523438 3633.828125 3776.023438 C 3586.328125 3803.523438 3481.328125 3848.523438 3388.828125 3848.523438 C 3296.328125 3848.523438 3181.328125 3831.023438 3128.828125 3806.023438 C 3076.328125 3781.023438 2971.328125 3711.023438 2906.328125 3648.523438 C 2841.328125 3586.023438 2779.335938 3498.015625 2736.835938 3428.015625 C 2681.640625 3337.117188 2646.328125 3253.523438 2636.328125 3208.523438 C 2614.726562 3111.375 2611.835938 2988.523438 2610.3125 2893.523438 C 2608.320312 2766.023438 2611.328125 2736.023438 2611.328125 2631.023438 Z M 2611.328125 2631.023438 "
       transform="matrix(0.1,0,0,-0.1,0,538.2)"
       id="path68" />
  </g>
</svg>
