<?xml version="1.0" encoding="UTF-8" standalone="no"?>
<svg
   width="469.56pt"
   height="538.2pt"
   viewBox="0 0 469.56 538.2"
   version="1.2"
   id="svg71"
   sodipodi:docname="logo.svg"
   inkscape:version="1.1.2 (0a00cf5339, 2022-02-04)"
   xmlns:inkscape="http://www.inkscape.org/namespaces/inkscape"
   xmlns:sodipodi="http://sodipodi.sourceforge.net/DTD/sodipodi-0.dtd"
   xmlns="http://www.w3.org/2000/svg"
   xmlns:svg="http://www.w3.org/2000/svg"
   xmlns:rdf="http://www.w3.org/1999/02/22-rdf-syntax-ns#"
   xmlns:cc="http://creativecommons.org/ns#"
   xmlns:dc="http://purl.org/dc/elements/1.1/">
  <metadata
     id="metadata75">
    <rdf:RDF>
      <cc:Work
         rdf:about="">
        <dc:format>image/svg+xml</dc:format>
        <dc:type
           rdf:resource="http://purl.org/dc/dcmitype/StillImage" />
      </cc:Work>
    </rdf:RDF>
  </metadata>
  <sodipodi:namedview
     pagecolor="#ffffff"
     bordercolor="#666666"
     borderopacity="1"
     objecttolerance="10"
     gridtolerance="10"
     guidetolerance="10"
     inkscape:pageopacity="0"
     inkscape:pageshadow="2"
     inkscape:window-width="1846"
     inkscape:window-height="1016"
     id="namedview73"
     showgrid="false"
     inkscape:zoom="0.32887402"
     inkscape:cx="-218.92882"
     inkscape:cy="348.15763"
     inkscape:window-x="0"
     inkscape:window-y="0"
     inkscape:window-maximized="1"
     inkscape:current-layer="surface1197"
     inkscape:pagecheckerboard="true"
     inkscape:document-units="pt" />
  <defs
     id="defs8">
    <clipPath
       id="clip1">
      <path
         d="M 2 0 L 469.558594 0 L 469.558594 538 L 2 538 Z M 2 0 "
         id="path2" />
    </clipPath>
    <clipPath
       id="clip2">
      <path
         d="M 0 0 L 469.558594 0 L 469.558594 538.199219 L 0 538.199219 Z M 0 0 "
         id="path5" />
    </clipPath>
  </defs>
  <g
     id="surface1197">
    <g
       clip-path="url(#clip1)"
       clip-rule="nonzero"
       id="g56"
       style="fill:#69acc7;fill-opacity:1">
      <path
         style="fill:#69acc7;fill-opacity:1;fill-rule:nonzero;stroke:none;stroke-width:1.33333337"
         d="M 3.6777344 0.22851562 C 16.057944 9.858724 45.509765 40.296873 73.509766 81.796875 C 112.50977 81.296875 197.3444 75.462891 264.67773 75.462891 C 264.95378 146.68685 265.66602 203.12956 265.66602 249.35352 C 265.66602 295.57227 264.06836 411.13086 263.17773 464.02148 C 262.28711 516.9069 259.62044 604.11002 258.28711 648.55273 C 306.28711 678.77669 327.88607 696.64128 347.44336 717.08398 C 345.51107 665.79752 346.82357 626.68685 347.70898 592.46289 C 370.51107 620.79623 387.61914 646.5931 393.40039 661.25977 C 428.8431 668.46289 443.17708 668.79688 456.84375 668.79688 C 470.51042 668.79688 495.8431 666.46353 513.50977 660.79688 C 531.17643 655.13021 553.51042 645.12956 570.84375 627.46289 C 588.17708 609.79622 591.13997 603.57357 601.24414 582.13086 C 610.50976 562.46419 613.84375 533.13086 613.84375 525.13086 C 613.84375 502.24023 608.73503 488.9069 602.28711 474.24023 C 595.8444 459.57357 580.73503 443.57357 571.17773 433.34961 C 561.62044 423.13086 534.73503 400.28646 524.06836 392.0625 C 540.73503 378.01562 548.66211 369.16081 554.95898 359.57227 C 564.29232 345.34831 560.29232 348.46419 565.17773 337.13086 C 567.17773 330.68294 570.06836 311.13021 570.06836 306.01562 C 570.06836 300.90626 568.73437 290.68294 567.625 285.34961 C 566.51563 280.01628 560.73503 265.12956 558.06836 259.57227 C 555.40169 254.01497 547.8444 244.68164 545.17773 240.46289 C 542.51107 236.23893 526.95833 220.9069 521.625 215.13086 C 516.29167 209.35482 505.40104 198.68815 499.625 193.13086 C 493.84375 187.57357 476.09961 174.05664 470.06836 170.10352 C 465.17773 166.9056 455.40039 161.12956 450.29102 158.68164 C 445.17643 156.23893 434.36003 151.48893 430.06836 150.68164 C 426.51107 150.01497 411.17643 146.90625 404.29102 146.90625 C 397.40039 146.90625 391.17643 147.79753 386.50977 149.34961 C 381.8431 150.9069 373.69206 154.73503 370.50977 156.77148 C 367.17643 158.9069 349.62435 172.68294 345.40039 177.13086 C 345.40039 162.68815 345.80208 124.46419 346.46875 76.240234 C 390.06771 76.682942 467.17708 78.463541 491.84375 78.90625 C 516.51042 79.348958 550.29166 82.46289 625.625 81.572266 C 596.51041 50.462888 569.62565 17.797525 562.95898 6.2402344 C 548.06836 6.6829424 449.40169 8.4641917 428.06836 8.2402344 C 406.73503 8.0162757 328.64649 8.5527344 298.64648 8.5527344 C 268.64648 8.5527344 199.17707 6.2402344 166.73438 6.2402344 C 134.29167 6.2402344 98.511069 4.4531257 77.177734 3.796875 C 62.735026 3.354167 0.068359812 0.061848957 3.6777344 0.22851562 z M 451.84375 204.46289 C 464.17708 204.46289 478.17643 210.46419 484.50977 214.13086 C 490.8431 217.79753 498.17773 226.46354 502.17773 234.79688 C 506.17773 243.13021 507.84375 246.46419 507.84375 264.13086 C 507.84375 281.79753 507.61914 275.57357 505.50977 285.13086 C 503.40039 294.68815 500.77539 300.79753 490.77539 315.13086 C 480.77539 329.46419 468.17774 339.66211 450.17773 347.66211 C 432.17773 355.66211 426.37565 357.72852 409.70898 361.72852 C 393.04232 365.72852 379.8444 366.79688 348.17773 366.79688 C 348.17773 352.79687 347.77539 348.79688 348.04102 331.79688 C 348.24414 319.13021 348.62956 302.75 351.50977 289.79688 C 352.8431 283.79687 357.55273 272.65104 364.91211 260.53125 C 370.57878 251.19792 378.8431 239.46419 387.50977 231.13086 C 396.17643 222.79753 410.17773 213.46419 417.17773 210.13086 C 424.17773 206.79753 439.51042 204.46289 451.84375 204.46289 z M 472.64648 407.32812 C 478.64648 407.32812 496.64648 407.79622 509.64648 416.46289 C 522.64648 425.12956 529.64583 431.13086 534.3125 440.13086 C 538.97917 449.13086 543.84375 462.25976 543.84375 478.25977 C 543.84375 494.25977 539.17708 511.79622 537.3125 518.19727 C 535.44271 524.5931 533.25 531.45378 528.96875 538.11523 C 521.83854 549.19336 512.57812 558.72852 512.57812 558.72852 C 512.57812 558.72852 485.97852 583.79687 441.97852 583.79688 C 389.64518 583.79688 374.04102 574.98438 346.97852 566.0625 C 347.64518 547.13021 347.97982 543.79753 350.64648 523.13086 C 353.31315 502.46419 363.3125 479.79688 363.3125 479.79688 C 363.3125 479.79688 378.64583 453.13086 392.3125 441.13086 C 405.97917 429.13086 418.64648 419.46289 428.64648 415.46289 C 438.64648 411.46289 457.97982 407.32813 472.64648 407.32812 z "
         transform="scale(0.74999997)"
         id="path54" />
    </g>
    <g
       clip-path="url(#clip2)"
       clip-rule="nonzero"
       id="g60" />
    <path
       style="stroke:none;fill-rule:nonzero;fill:none;fill-opacity:1"
       d="M 260.234375 424.546875 C 280.53125 431.238281 292.234375 437.847656 331.484375 437.847656 C 364.484375 437.847656 384.433594 419.046875 384.433594 419.046875 C 384.433594 419.046875 391.378906 411.894531 396.726562 403.585938 C 399.9375 398.589844 401.582031 393.445312 402.984375 388.648438 C 404.382812 383.847656 407.882812 370.695312 407.882812 358.695312 C 407.882812 346.695312 404.234375 336.847656 400.734375 330.097656 C 397.234375 323.347656 391.984375 318.847656 382.234375 312.347656 C 372.484375 305.847656 358.984375 305.496094 354.484375 305.496094 C 343.484375 305.496094 328.984375 308.597656 321.484375 311.597656 C 313.984375 314.597656 304.484375 321.847656 294.234375 330.847656 C 283.984375 339.847656 272.484375 359.847656 272.484375 359.847656 C 272.484375 359.847656 264.984375 376.847656 262.984375 392.347656 C 260.984375 407.847656 260.734375 410.347656 260.234375 424.546875 "
       id="path62" />
  </g>
</svg>
